<svg width="276" height="185" viewBox="0 0 286 195" fill="none" xmlns="http://www.w3.org/2000/svg">
<g clip-path="url(#clip0_264_2584)">
<path d="M64.9594 5.06738C66.3581 5.06738 67.492 3.93301 67.492 2.53369C67.492 1.13437 66.3581 0 64.9594 0C63.5606 0 62.4268 1.13437 62.4268 2.53369C62.4268 3.93301 63.5606 5.06738 64.9594 5.06738Z" fill="#E6E6E6"/>
<path d="M77.7794 5.06738C79.1782 5.06738 80.312 3.93301 80.312 2.53369C80.312 1.13437 79.1782 0 77.7794 0C76.3807 0 75.2468 1.13437 75.2468 2.53369C75.2468 3.93301 76.3807 5.06738 77.7794 5.06738Z" fill="#E6E6E6"/>
<path d="M90.5995 5.06738C91.9982 5.06738 93.1321 3.93301 93.1321 2.53369C93.1321 1.13437 91.9982 0 90.5995 0C89.2008 0 88.0669 1.13437 88.0669 2.53369C88.0669 3.93301 89.2008 5.06738 90.5995 5.06738Z" fill="#E6E6E6"/>
<path d="M103.42 5.06738C104.818 5.06738 105.952 3.93301 105.952 2.53369C105.952 1.13437 104.818 0 103.42 0C102.021 0 100.887 1.13437 100.887 2.53369C100.887 3.93301 102.021 5.06738 103.42 5.06738Z" fill="#E6E6E6"/>
<path d="M116.239 5.06738C117.638 5.06738 118.772 3.93301 118.772 2.53369C118.772 1.13437 117.638 0 116.239 0C114.841 0 113.707 1.13437 113.707 2.53369C113.707 3.93301 114.841 5.06738 116.239 5.06738Z" fill="#E6E6E6"/>
<path d="M64.9594 18.054C66.3581 18.054 67.492 16.9196 67.492 15.5203C67.492 14.1209 66.3581 12.9866 64.9594 12.9866C63.5606 12.9866 62.4268 14.1209 62.4268 15.5203C62.4268 16.9196 63.5606 18.054 64.9594 18.054Z" fill="#E6E6E6"/>
<path d="M77.7794 18.054C79.1782 18.054 80.312 16.9196 80.312 15.5203C80.312 14.1209 79.1782 12.9866 77.7794 12.9866C76.3807 12.9866 75.2468 14.1209 75.2468 15.5203C75.2468 16.9196 76.3807 18.054 77.7794 18.054Z" fill="#E6E6E6"/>
<path d="M90.5995 18.054C91.9982 18.054 93.1321 16.9196 93.1321 15.5203C93.1321 14.1209 91.9982 12.9866 90.5995 12.9866C89.2008 12.9866 88.0669 14.1209 88.0669 15.5203C88.0669 16.9196 89.2008 18.054 90.5995 18.054Z" fill="#E6E6E6"/>
<path d="M103.42 18.054C104.818 18.054 105.952 16.9196 105.952 15.5203C105.952 14.1209 104.818 12.9866 103.42 12.9866C102.021 12.9866 100.887 14.1209 100.887 15.5203C100.887 16.9196 102.021 18.054 103.42 18.054Z" fill="#FFCF01"/>
<path d="M116.239 18.054C117.638 18.054 118.772 16.9196 118.772 15.5203C118.772 14.1209 117.638 12.9866 116.239 12.9866C114.841 12.9866 113.707 14.1209 113.707 15.5203C113.707 16.9196 114.841 18.054 116.239 18.054Z" fill="#E6E6E6"/>
<path d="M141.88 18.054C143.278 18.054 144.412 16.9196 144.412 15.5203C144.412 14.1209 143.278 12.9866 141.88 12.9866C140.481 12.9866 139.347 14.1209 139.347 15.5203C139.347 16.9196 140.481 18.054 141.88 18.054Z" fill="#E6E6E6"/>
<path d="M64.9594 31.0403C66.3581 31.0403 67.492 29.9059 67.492 28.5066C67.492 27.1073 66.3581 25.9729 64.9594 25.9729C63.5606 25.9729 62.4268 27.1073 62.4268 28.5066C62.4268 29.9059 63.5606 31.0403 64.9594 31.0403Z" fill="#E6E6E6"/>
<path d="M77.7794 31.0403C79.1782 31.0403 80.312 29.9059 80.312 28.5066C80.312 27.1073 79.1782 25.9729 77.7794 25.9729C76.3807 25.9729 75.2468 27.1073 75.2468 28.5066C75.2468 29.9059 76.3807 31.0403 77.7794 31.0403Z" fill="#E6E6E6"/>
<path d="M90.5995 31.0403C91.9982 31.0403 93.1321 29.9059 93.1321 28.5066C93.1321 27.1073 91.9982 25.9729 90.5995 25.9729C89.2008 25.9729 88.0669 27.1073 88.0669 28.5066C88.0669 29.9059 89.2008 31.0403 90.5995 31.0403Z" fill="#E6E6E6"/>
<path d="M103.42 31.0403C104.818 31.0403 105.952 29.9059 105.952 28.5066C105.952 27.1073 104.818 25.9729 103.42 25.9729C102.021 25.9729 100.887 27.1073 100.887 28.5066C100.887 29.9059 102.021 31.0403 103.42 31.0403Z" fill="#E6E6E6"/>
<path d="M116.239 31.0403C117.638 31.0403 118.772 29.9059 118.772 28.5066C118.772 27.1073 117.638 25.9729 116.239 25.9729C114.841 25.9729 113.707 27.1073 113.707 28.5066C113.707 29.9059 114.841 31.0403 116.239 31.0403Z" fill="#E6E6E6"/>
<path d="M64.9594 44.0269C66.3581 44.0269 67.492 42.8925 67.492 41.4932C67.492 40.0938 66.3581 38.9595 64.9594 38.9595C63.5606 38.9595 62.4268 40.0938 62.4268 41.4932C62.4268 42.8925 63.5606 44.0269 64.9594 44.0269Z" fill="#E6E6E6"/>
<path d="M77.7794 44.0269C79.1782 44.0269 80.312 42.8925 80.312 41.4932C80.312 40.0938 79.1782 38.9595 77.7794 38.9595C76.3807 38.9595 75.2468 40.0938 75.2468 41.4932C75.2468 42.8925 76.3807 44.0269 77.7794 44.0269Z" fill="#E6E6E6"/>
<path d="M90.5995 44.0269C91.9982 44.0269 93.1321 42.8925 93.1321 41.4932C93.1321 40.0938 91.9982 38.9595 90.5995 38.9595C89.2008 38.9595 88.0669 40.0938 88.0669 41.4932C88.0669 42.8925 89.2008 44.0269 90.5995 44.0269Z" fill="#E6E6E6"/>
<path d="M103.42 44.0269C104.818 44.0269 105.952 42.8925 105.952 41.4932C105.952 40.0938 104.818 38.9595 103.42 38.9595C102.021 38.9595 100.887 40.0938 100.887 41.4932C100.887 42.8925 102.021 44.0269 103.42 44.0269Z" fill="#E6E6E6"/>
<path d="M116.239 44.0269C117.638 44.0269 118.772 42.8925 118.772 41.4932C118.772 40.0938 117.638 38.9595 116.239 38.9595C114.841 38.9595 113.707 40.0938 113.707 41.4932C113.707 42.8925 114.841 44.0269 116.239 44.0269Z" fill="#E6E6E6"/>
<path d="M129.059 44.0269C130.458 44.0269 131.592 42.8925 131.592 41.4932C131.592 40.0938 130.458 38.9595 129.059 38.9595C127.661 38.9595 126.527 40.0938 126.527 41.4932C126.527 42.8925 127.661 44.0269 129.059 44.0269Z" fill="#E6E6E6"/>
<path d="M141.88 44.0269C143.278 44.0269 144.412 42.8925 144.412 41.4932C144.412 40.0938 143.278 38.9595 141.88 38.9595C140.481 38.9595 139.347 40.0938 139.347 41.4932C139.347 42.8925 140.481 44.0269 141.88 44.0269Z" fill="#E6E6E6"/>
<path d="M154.7 44.0269C156.098 44.0269 157.232 42.8925 157.232 41.4932C157.232 40.0938 156.098 38.9595 154.7 38.9595C153.301 38.9595 152.167 40.0938 152.167 41.4932C152.167 42.8925 153.301 44.0269 154.7 44.0269Z" fill="#E6E6E6"/>
<path d="M167.519 44.0269C168.918 44.0269 170.052 42.8925 170.052 41.4932C170.052 40.0938 168.918 38.9595 167.519 38.9595C166.121 38.9595 164.987 40.0938 164.987 41.4932C164.987 42.8925 166.121 44.0269 167.519 44.0269Z" fill="#E6E6E6"/>
<path d="M180.339 44.0269C181.738 44.0269 182.872 42.8925 182.872 41.4932C182.872 40.0938 181.738 38.9595 180.339 38.9595C178.941 38.9595 177.807 40.0938 177.807 41.4932C177.807 42.8925 178.941 44.0269 180.339 44.0269Z" fill="#E6E6E6"/>
<path d="M116.239 57.0132C117.638 57.0132 118.772 55.8788 118.772 54.4795C118.772 53.0802 117.638 51.9458 116.239 51.9458C114.841 51.9458 113.707 53.0802 113.707 54.4795C113.707 55.8788 114.841 57.0132 116.239 57.0132Z" fill="#E6E6E6"/>
<path d="M129.059 57.0132C130.458 57.0132 131.592 55.8788 131.592 54.4795C131.592 53.0802 130.458 51.9458 129.059 51.9458C127.661 51.9458 126.527 53.0802 126.527 54.4795C126.527 55.8788 127.661 57.0132 129.059 57.0132Z" fill="#FFCF01"/>
<path d="M141.88 57.0132C143.278 57.0132 144.412 55.8788 144.412 54.4795C144.412 53.0802 143.278 51.9458 141.88 51.9458C140.481 51.9458 139.347 53.0802 139.347 54.4795C139.347 55.8788 140.481 57.0132 141.88 57.0132Z" fill="#E6E6E6"/>
<path d="M154.7 57.0132C156.098 57.0132 157.232 55.8788 157.232 54.4795C157.232 53.0802 156.098 51.9458 154.7 51.9458C153.301 51.9458 152.167 53.0802 152.167 54.4795C152.167 55.8788 153.301 57.0132 154.7 57.0132Z" fill="#E6E6E6"/>
<path d="M167.519 57.0132C168.918 57.0132 170.052 55.8788 170.052 54.4795C170.052 53.0802 168.918 51.9458 167.519 51.9458C166.121 51.9458 164.987 53.0802 164.987 54.4795C164.987 55.8788 166.121 57.0132 167.519 57.0132Z" fill="#E6E6E6"/>
<path d="M180.339 57.0132C181.738 57.0132 182.872 55.8788 182.872 54.4795C182.872 53.0802 181.738 51.9458 180.339 51.9458C178.941 51.9458 177.807 53.0802 177.807 54.4795C177.807 55.8788 178.941 57.0132 180.339 57.0132Z" fill="#E6E6E6"/>
<path d="M116.239 69.9998C117.638 69.9998 118.772 68.8654 118.772 67.4661C118.772 66.0667 117.638 64.9324 116.239 64.9324C114.841 64.9324 113.707 66.0667 113.707 67.4661C113.707 68.8654 114.841 69.9998 116.239 69.9998Z" fill="#E6E6E6"/>
<path d="M129.059 69.9998C130.458 69.9998 131.592 68.8654 131.592 67.4661C131.592 66.0667 130.458 64.9324 129.059 64.9324C127.661 64.9324 126.527 66.0667 126.527 67.4661C126.527 68.8654 127.661 69.9998 129.059 69.9998Z" fill="#E6E6E6"/>
<path d="M141.88 69.9998C143.278 69.9998 144.412 68.8654 144.412 67.4661C144.412 66.0667 143.278 64.9324 141.88 64.9324C140.481 64.9324 139.347 66.0667 139.347 67.4661C139.347 68.8654 140.481 69.9998 141.88 69.9998Z" fill="#E6E6E6"/>
<path d="M154.7 69.9998C156.098 69.9998 157.232 68.8654 157.232 67.4661C157.232 66.0667 156.098 64.9324 154.7 64.9324C153.301 64.9324 152.167 66.0667 152.167 67.4661C152.167 68.8654 153.301 69.9998 154.7 69.9998Z" fill="#E6E6E6"/>
<path d="M167.519 69.9998C168.918 69.9998 170.052 68.8654 170.052 67.4661C170.052 66.0667 168.918 64.9324 167.519 64.9324C166.121 64.9324 164.987 66.0667 164.987 67.4661C164.987 68.8654 166.121 69.9998 167.519 69.9998Z" fill="#FFCF01"/>
<path d="M180.339 69.9998C181.738 69.9998 182.872 68.8654 182.872 67.4661C182.872 66.0667 181.738 64.9324 180.339 64.9324C178.941 64.9324 177.807 66.0667 177.807 67.4661C177.807 68.8654 178.941 69.9998 180.339 69.9998Z" fill="#E6E6E6"/>
<path d="M116.239 82.9863C117.638 82.9863 118.772 81.852 118.772 80.4526C118.772 79.0533 117.638 77.9189 116.239 77.9189C114.841 77.9189 113.707 79.0533 113.707 80.4526C113.707 81.852 114.841 82.9863 116.239 82.9863Z" fill="#E6E6E6"/>
<path d="M129.059 82.9863C130.458 82.9863 131.592 81.852 131.592 80.4526C131.592 79.0533 130.458 77.9189 129.059 77.9189C127.661 77.9189 126.527 79.0533 126.527 80.4526C126.527 81.852 127.661 82.9863 129.059 82.9863Z" fill="#E6E6E6"/>
<path d="M141.88 82.9863C143.278 82.9863 144.412 81.852 144.412 80.4526C144.412 79.0533 143.278 77.9189 141.88 77.9189C140.481 77.9189 139.347 79.0533 139.347 80.4526C139.347 81.852 140.481 82.9863 141.88 82.9863Z" fill="#E6E6E6"/>
<path d="M154.7 82.9863C156.098 82.9863 157.232 81.852 157.232 80.4526C157.232 79.0533 156.098 77.9189 154.7 77.9189C153.301 77.9189 152.167 79.0533 152.167 80.4526C152.167 81.852 153.301 82.9863 154.7 82.9863Z" fill="#E6E6E6"/>
<path d="M167.519 82.9863C168.918 82.9863 170.052 81.852 170.052 80.4526C170.052 79.0533 168.918 77.9189 167.519 77.9189C166.121 77.9189 164.987 79.0533 164.987 80.4526C164.987 81.852 166.121 82.9863 167.519 82.9863Z" fill="#E6E6E6"/>
<path d="M180.339 82.9863C181.738 82.9863 182.872 81.852 182.872 80.4526C182.872 79.0533 181.738 77.9189 180.339 77.9189C178.941 77.9189 177.807 79.0533 177.807 80.4526C177.807 81.852 178.941 82.9863 180.339 82.9863Z" fill="#E6E6E6"/>
<path d="M64.9594 95.9727C66.3581 95.9727 67.492 94.8383 67.492 93.439C67.492 92.0396 66.3581 90.9053 64.9594 90.9053C63.5606 90.9053 62.4268 92.0396 62.4268 93.439C62.4268 94.8383 63.5606 95.9727 64.9594 95.9727Z" fill="#E6E6E6"/>
<path d="M77.7794 95.9727C79.1782 95.9727 80.312 94.8383 80.312 93.439C80.312 92.0396 79.1782 90.9053 77.7794 90.9053C76.3807 90.9053 75.2468 92.0396 75.2468 93.439C75.2468 94.8383 76.3807 95.9727 77.7794 95.9727Z" fill="#E6E6E6"/>
<path d="M90.5995 95.9727C91.9982 95.9727 93.1321 94.8383 93.1321 93.439C93.1321 92.0396 91.9982 90.9053 90.5995 90.9053C89.2008 90.9053 88.0669 92.0396 88.0669 93.439C88.0669 94.8383 89.2008 95.9727 90.5995 95.9727Z" fill="#E6E6E6"/>
<path d="M103.42 95.9727C104.818 95.9727 105.952 94.8383 105.952 93.439C105.952 92.0396 104.818 90.9053 103.42 90.9053C102.021 90.9053 100.887 92.0396 100.887 93.439C100.887 94.8383 102.021 95.9727 103.42 95.9727Z" fill="#E6E6E6"/>
<path d="M116.239 95.9727C117.638 95.9727 118.772 94.8383 118.772 93.439C118.772 92.0396 117.638 90.9053 116.239 90.9053C114.841 90.9053 113.707 92.0396 113.707 93.439C113.707 94.8383 114.841 95.9727 116.239 95.9727Z" fill="#E6E6E6"/>
<path d="M129.059 95.9727C130.458 95.9727 131.592 94.8383 131.592 93.439C131.592 92.0396 130.458 90.9053 129.059 90.9053C127.661 90.9053 126.527 92.0396 126.527 93.439C126.527 94.8383 127.661 95.9727 129.059 95.9727Z" fill="#E6E6E6"/>
<path d="M141.88 95.9727C143.278 95.9727 144.412 94.8383 144.412 93.439C144.412 92.0396 143.278 90.9053 141.88 90.9053C140.481 90.9053 139.347 92.0396 139.347 93.439C139.347 94.8383 140.481 95.9727 141.88 95.9727Z" fill="#E6E6E6"/>
<path d="M154.7 95.9727C156.098 95.9727 157.232 94.8383 157.232 93.439C157.232 92.0396 156.098 90.9053 154.7 90.9053C153.301 90.9053 152.167 92.0396 152.167 93.439C152.167 94.8383 153.301 95.9727 154.7 95.9727Z" fill="#E6E6E6"/>
<path d="M167.519 95.9727C168.918 95.9727 170.052 94.8383 170.052 93.439C170.052 92.0396 168.918 90.9053 167.519 90.9053C166.121 90.9053 164.987 92.0396 164.987 93.439C164.987 94.8383 166.121 95.9727 167.519 95.9727Z" fill="#E6E6E6"/>
<path d="M180.339 95.9727C181.738 95.9727 182.872 94.8383 182.872 93.439C182.872 92.0396 181.738 90.9053 180.339 90.9053C178.941 90.9053 177.807 92.0396 177.807 93.439C177.807 94.8383 178.941 95.9727 180.339 95.9727Z" fill="#E6E6E6"/>
<path d="M64.9579 108.959C66.3566 108.959 67.4905 107.824 67.4905 106.425C67.4905 105.026 66.3566 103.891 64.9579 103.891C63.5592 103.891 62.4253 105.026 62.4253 106.425C62.4253 107.824 63.5592 108.959 64.9579 108.959Z" fill="#E6E6E6"/>
<path d="M77.7794 108.959C79.1782 108.959 80.312 107.825 80.312 106.426C80.312 105.026 79.1782 103.892 77.7794 103.892C76.3807 103.892 75.2468 105.026 75.2468 106.426C75.2468 107.825 76.3807 108.959 77.7794 108.959Z" fill="#E6E6E6"/>
<path d="M64.9579 121.945C66.3566 121.945 67.4905 120.811 67.4905 119.411C67.4905 118.012 66.3566 116.878 64.9579 116.878C63.5592 116.878 62.4253 118.012 62.4253 119.411C62.4253 120.811 63.5592 121.945 64.9579 121.945Z" fill="#E6E6E6"/>
<path d="M77.7794 121.946C79.1782 121.946 80.312 120.811 80.312 119.412C80.312 118.013 79.1782 116.878 77.7794 116.878C76.3807 116.878 75.2468 118.013 75.2468 119.412C75.2468 120.811 76.3807 121.946 77.7794 121.946Z" fill="#E6E6E6"/>
<path d="M103.42 121.946C104.818 121.946 105.952 120.811 105.952 119.412C105.952 118.013 104.818 116.878 103.42 116.878C102.021 116.878 100.887 118.013 100.887 119.412C100.887 120.811 102.021 121.946 103.42 121.946Z" fill="#E6E6E6"/>
<path d="M231.206 29.8926H130.843C130.35 29.892 129.878 29.6959 129.529 29.3474C129.181 28.9988 128.985 28.5262 128.984 28.0332V3.12694C128.985 2.63398 129.181 2.16138 129.529 1.81281C129.878 1.46424 130.35 1.26816 130.843 1.26758H231.206C231.698 1.26816 232.171 1.46424 232.519 1.81281C232.868 2.16138 233.064 2.63398 233.064 3.12694V28.0332C233.064 28.5262 232.868 28.9988 232.519 29.3474C232.171 29.6959 231.698 29.892 231.206 29.8926ZM130.843 2.01132C130.547 2.01164 130.264 2.12929 130.055 2.33843C129.846 2.54758 129.728 2.83116 129.728 3.12694V28.0332C129.728 28.329 129.846 28.6126 130.055 28.8217C130.264 29.0309 130.547 29.1485 130.843 29.1489H231.206C231.501 29.1485 231.785 29.0309 231.994 28.8217C232.203 28.6126 232.32 28.329 232.321 28.0332V3.12694C232.32 2.83116 232.203 2.54758 231.994 2.33843C231.785 2.12929 231.501 2.01164 231.206 2.01132H130.843Z" fill="#E6E6E6"/>
<path d="M143.853 23.3891C148.164 23.3891 151.659 19.8928 151.659 15.5798C151.659 11.2669 148.164 7.77051 143.853 7.77051C139.542 7.77051 136.047 11.2669 136.047 15.5798C136.047 19.8928 139.542 23.3891 143.853 23.3891Z" fill="#FFCF01"/>
<path d="M161.881 10.3738C161.536 10.3738 161.205 10.5109 160.961 10.755C160.717 10.9991 160.58 11.3301 160.58 11.6753C160.58 12.0205 160.717 12.3516 160.961 12.5957C161.205 12.8398 161.536 12.9769 161.881 12.9769H196.45C196.795 12.9769 197.126 12.8398 197.37 12.5957C197.614 12.3516 197.751 12.0205 197.751 11.6753C197.751 11.3301 197.614 10.9991 197.37 10.755C197.126 10.5109 196.795 10.3738 196.45 10.3738H161.881Z" fill="#E6E6E6"/>
<path d="M161.881 18.1829C161.536 18.1829 161.205 18.32 160.961 18.5641C160.717 18.8082 160.58 19.1392 160.58 19.4844C160.58 19.8296 160.717 20.1607 160.961 20.4047C161.205 20.6488 161.536 20.786 161.881 20.786H223.213C223.558 20.786 223.889 20.6488 224.133 20.4047C224.377 20.1607 224.514 19.8296 224.514 19.4844C224.514 19.1392 224.377 18.8082 224.133 18.5641C223.889 18.32 223.558 18.1829 223.213 18.1829H161.881Z" fill="#E6E6E6"/>
<path d="M102.221 80.467H1.85856C1.36582 80.4665 0.893423 80.2704 0.545 79.9218C0.196577 79.5732 0.000577466 79.1006 0 78.6077V53.7014C0.000577466 53.2084 0.196577 52.7358 0.545 52.3873C0.893423 52.0387 1.36582 51.8426 1.85856 51.842H102.221C102.714 51.8426 103.186 52.0387 103.535 52.3873C103.883 52.7358 104.079 53.2084 104.08 53.7014V78.6077C104.079 79.1007 103.883 79.5732 103.535 79.9218C103.186 80.2704 102.714 80.4665 102.221 80.467ZM1.85856 52.5858C1.56291 52.5861 1.27946 52.7037 1.0704 52.9129C0.861339 53.122 0.743748 53.4056 0.743425 53.7014V78.6077C0.743748 78.9035 0.861339 79.1871 1.0704 79.3962C1.27946 79.6054 1.56291 79.723 1.85856 79.7233H102.221C102.517 79.723 102.8 79.6054 103.009 79.3962C103.218 79.1871 103.336 78.9035 103.336 78.6077V53.7014C103.336 53.4056 103.218 53.122 103.009 52.9129C102.8 52.7037 102.517 52.5861 102.221 52.5858H1.85856Z" fill="#E6E6E6"/>
<path d="M14.8685 73.9638C19.1796 73.9638 22.6744 70.4675 22.6744 66.1545C22.6744 61.8416 19.1796 58.3452 14.8685 58.3452C10.5574 58.3452 7.0625 61.8416 7.0625 66.1545C7.0625 70.4675 10.5574 73.9638 14.8685 73.9638Z" fill="#FFCF01"/>
<path d="M32.8967 60.9482C32.5517 60.9482 32.2207 61.0854 31.9768 61.3295C31.7328 61.5736 31.5957 61.9046 31.5957 62.2498C31.5957 62.595 31.7328 62.926 31.9768 63.1701C32.2207 63.4142 32.5517 63.5513 32.8967 63.5513H68.9528C69.2979 63.5513 69.6288 63.4142 69.8728 63.1701C70.1168 62.926 70.2538 62.595 70.2538 62.2498C70.2538 61.9046 70.1168 61.5736 69.8728 61.3295C69.6288 61.0854 69.2979 60.9482 68.9528 60.9482H32.8967Z" fill="#E6E6E6"/>
<path d="M32.8967 68.7576C32.5517 68.7576 32.2207 68.8947 31.9768 69.1388C31.7328 69.3829 31.5957 69.7139 31.5957 70.0591C31.5957 70.4043 31.7328 70.7354 31.9768 70.9795C32.2207 71.2235 32.5517 71.3607 32.8967 71.3607H94.2293C94.5743 71.3607 94.9053 71.2235 95.1492 70.9795C95.3932 70.7354 95.5303 70.4043 95.5303 70.0591C95.5303 69.7139 95.3932 69.3829 95.1492 69.1388C94.9053 68.8947 94.5743 68.7576 94.2293 68.7576H32.8967Z" fill="#E6E6E6"/>
<path d="M192.919 135.132H92.5566C92.0638 135.132 91.5914 134.935 91.243 134.587C90.8946 134.238 90.6986 133.766 90.698 133.273V108.366C90.6986 107.873 90.8946 107.401 91.243 107.052C91.5914 106.704 92.0638 106.508 92.5566 106.507H192.919C193.412 106.508 193.884 106.704 194.233 107.052C194.581 107.401 194.777 107.873 194.778 108.366V133.273C194.777 133.766 194.581 134.238 194.233 134.587C193.884 134.935 193.412 135.132 192.919 135.132ZM92.5566 107.251C92.2609 107.251 91.9775 107.369 91.7684 107.578C91.5593 107.787 91.4417 108.071 91.4414 108.366V133.273C91.4417 133.569 91.5593 133.852 91.7684 134.061C91.9775 134.27 92.2609 134.388 92.5566 134.388H192.919C193.215 134.388 193.498 134.27 193.707 134.061C193.916 133.852 194.034 133.569 194.034 133.273V108.366C194.034 108.071 193.916 107.787 193.707 107.578C193.498 107.369 193.215 107.251 192.919 107.251H92.5566Z" fill="#3F3D56"/>
<path d="M105.566 128.629C109.878 128.629 113.372 125.133 113.372 120.82C113.372 116.507 109.878 113.01 105.566 113.01C101.255 113.01 97.7605 116.507 97.7605 120.82C97.7605 125.133 101.255 128.629 105.566 128.629Z" fill="#FFCF01"/>
<path d="M123.594 115.613C123.249 115.613 122.919 115.75 122.675 115.995C122.431 116.239 122.293 116.57 122.293 116.915C122.293 117.26 122.431 117.591 122.675 117.835C122.919 118.079 123.249 118.216 123.594 118.216H156.677C157.022 118.216 157.353 118.079 157.597 117.835C157.841 117.591 157.978 117.26 157.978 116.915C157.978 116.57 157.841 116.239 157.597 115.995C157.353 115.75 157.022 115.613 156.677 115.613H123.594Z" fill="#E6E6E6"/>
<path d="M123.594 123.423C123.249 123.423 122.919 123.56 122.675 123.804C122.431 124.048 122.293 124.379 122.293 124.724C122.293 125.069 122.431 125.4 122.675 125.645C122.919 125.889 123.249 126.026 123.594 126.026H184.927C185.272 126.026 185.603 125.889 185.847 125.645C186.091 125.4 186.228 125.069 186.228 124.724C186.228 124.379 186.091 124.048 185.847 123.804C185.603 123.56 185.272 123.423 184.927 123.423H123.594Z" fill="#E6E6E6"/>
<path d="M246.91 128.815C242.551 141.897 224.721 128.023 224.721 128.023L229.476 78.4718C236.608 72.9221 244.136 77.679 244.136 77.679L246.91 128.815Z" fill="#E6E6E6"/>
<path d="M245.974 172.719L252.05 172.783L250.532 190.303L245.975 190.304L245.974 172.719Z" fill="#FFB8B8"/>
<path d="M244.812 188.815H253.787C255.303 188.817 256.757 189.42 257.829 190.493C258.901 191.565 259.504 193.02 259.506 194.537V194.723H244.812V188.815Z" fill="#2F2E41"/>
<path d="M229.503 172.719L222.777 172.718L224.945 190.303L229.502 190.304L229.503 172.719Z" fill="#FFB8B8"/>
<path d="M215.97 194.723V194.537C215.971 193.019 216.573 191.564 217.646 190.491C218.718 189.418 220.173 188.815 221.69 188.815L230.665 188.815L230.665 194.723L215.97 194.723Z" fill="#2F2E41"/>
<path d="M245.564 187.268L237.604 140.85L230.23 186.67L222.758 187.085L220.766 125.695L220.916 125.661C222.151 125.384 251.224 118.996 255.99 128.135L256.014 128.181L252.036 187.477L245.564 187.268Z" fill="#2F2E41"/>
<path d="M237.128 72.665C242.17 72.665 246.258 68.5758 246.258 63.5315C246.258 58.4872 242.17 54.3979 237.128 54.3979C232.086 54.3979 227.999 58.4872 227.999 63.5315C227.999 68.5758 232.086 72.665 237.128 72.665Z" fill="#FFB8B8"/>
<path d="M244.798 132.73C243.728 132.433 242.957 131.204 242.371 128.861C242.27 128.457 232.791 88.062 240.807 80.7435L242.655 75.6086L245.184 77.2951C246.078 77.3035 255.228 77.5352 256.01 83.4023C256.775 89.1453 258.859 127.623 256.764 130.016C256.723 130.069 256.671 130.112 256.611 130.142C256.552 130.172 256.486 130.189 256.42 130.191C254.297 130.191 253.653 127.834 253.501 127.083C252.996 127.292 251.493 128.061 249.023 130.532C247.492 132.064 246.292 132.797 245.301 132.797C245.131 132.798 244.962 132.775 244.798 132.73Z" fill="#2F2E41"/>
<path d="M224.985 130.532C222.514 128.06 221.011 127.292 220.507 127.083C220.355 127.834 219.711 130.191 217.588 130.191C217.522 130.189 217.456 130.172 217.397 130.142C217.337 130.112 217.285 130.069 217.244 130.016C215.149 127.623 217.233 89.1455 217.998 83.4023C218.78 77.5352 227.93 77.3035 228.824 77.2951L231.353 75.6086L233.201 80.7435C241.216 88.0614 231.738 128.457 231.637 128.861C231.051 131.204 230.28 132.433 229.21 132.73C229.046 132.775 228.877 132.798 228.707 132.797C227.716 132.797 226.516 132.063 224.985 130.532Z" fill="#2F2E41"/>
<path d="M244.666 68.7487C246.21 67.6373 247.38 66.0817 248.019 64.2891C248.658 62.4964 248.737 60.5515 248.244 58.7131C247.751 56.8746 246.711 55.2298 245.261 53.9974C243.811 52.7649 242.021 52.0032 240.128 51.8137C239.287 51.7295 238.382 51.742 237.685 51.2645C237.066 50.8403 236.733 50.1045 236.164 49.6151C235.803 49.3354 235.388 49.1333 234.945 49.0216C234.502 48.9099 234.04 48.8909 233.589 48.9658C232.69 49.1209 231.818 49.4076 231.001 49.8164C228.977 50.7194 226.825 51.8307 225.904 53.8475C225.106 55.5945 225.458 57.7487 226.588 59.3018C227.775 60.8389 229.507 61.8618 231.426 62.1599C233.334 62.445 235.282 62.2695 237.108 61.6481C238.313 61.2687 239.502 60.7519 240.765 60.7097C241.75 60.6767 242.723 60.9377 243.56 61.4595C244.396 61.9813 245.059 62.7402 245.463 63.6398C245.867 64.5394 245.995 65.539 245.83 66.5114C245.665 67.4838 245.214 68.3851 244.536 69.1006" fill="#2F2E41"/>
<path d="M194.904 123.083C195.431 123.07 195.951 122.954 196.433 122.741C196.916 122.528 197.351 122.222 197.715 121.841C198.079 121.459 198.365 121.01 198.555 120.518C198.746 120.026 198.837 119.501 198.825 118.974L204.149 109.987L200.036 106.214L194.427 115.069C193.392 115.168 192.437 115.665 191.761 116.456C191.085 117.246 190.742 118.268 190.803 119.306C190.865 120.344 191.327 121.318 192.092 122.022C192.857 122.727 193.865 123.107 194.904 123.083Z" fill="#FFB8B8"/>
<path d="M256.673 132.928C257.115 132.64 257.495 132.267 257.793 131.832C258.091 131.397 258.3 130.907 258.409 130.391C258.518 129.875 258.524 129.342 258.427 128.824C258.33 128.306 258.131 127.811 257.844 127.369L257.64 116.925L252.157 115.884L252.049 126.366C251.222 126.996 250.671 127.922 250.512 128.95C250.354 129.978 250.6 131.027 251.199 131.877C251.798 132.727 252.703 133.312 253.724 133.508C254.745 133.704 255.802 133.496 256.673 132.928Z" fill="#FFB8B8"/>
<path d="M196.524 108.632L196.462 108.534L196.523 108.435C204.509 95.6057 221.272 79.5801 221.44 79.4196L221.493 79.3691L223.564 79.3479L225.802 84.926C225.105 86.267 206.325 112.485 203.846 114.224C203.648 114.361 203.424 114.455 203.188 114.499C202.952 114.544 202.71 114.538 202.476 114.482C202.063 114.387 201.67 114.22 201.315 113.988C199.026 112.57 196.641 108.818 196.524 108.632Z" fill="#2F2E41"/>
<path d="M251.113 123.272C250.891 123.196 250.687 123.075 250.513 122.915C250.34 122.756 250.202 122.563 250.107 122.348C248.912 119.557 254.036 84.3046 254.255 82.8054L254.296 82.5217L256.028 83.6199L256.045 83.6947C256.096 83.9199 261.142 106.378 259.775 121.301L259.765 121.407L259.668 121.452C259.459 121.549 255.256 123.48 252.455 123.48C251.999 123.492 251.544 123.421 251.113 123.272Z" fill="#2F2E41"/>
<path d="M285.628 195H186.753C186.654 195 186.56 194.961 186.49 194.891C186.42 194.821 186.381 194.727 186.381 194.628C186.381 194.529 186.42 194.435 186.49 194.365C186.56 194.295 186.654 194.256 186.753 194.256H285.628C285.727 194.256 285.822 194.295 285.891 194.365C285.961 194.435 286 194.529 286 194.628C286 194.727 285.961 194.821 285.891 194.891C285.822 194.961 285.727 195 285.628 195Z" fill="#3F3D56"/>
</g>
<defs>
<clipPath id="clip0_264_2584">
<rect width="286" height="195" fill="white"/>
</clipPath>
</defs>
</svg>
