<svg width="175" height="128" viewBox="0 0 175 128" fill="none" xmlns="http://www.w3.org/2000/svg">
<g clip-path="url(#clip0_276_2050)">
<path d="M106.439 60.5716C105.896 60.5708 105.374 60.3636 104.978 59.992C104.582 59.6204 104.342 59.1122 104.306 58.5703L103.988 53.7184C103.951 53.1516 104.141 52.5934 104.515 52.1664C104.89 51.7395 105.418 51.4787 105.985 51.4416L143.985 48.9522C145.194 48.8739 146.385 49.2791 147.296 50.0787C148.207 50.8783 148.763 52.0069 148.842 53.2164C148.921 54.4259 148.517 55.6174 147.718 56.529C146.919 57.4406 145.792 57.9976 144.583 58.0777L106.582 60.567C106.534 60.57 106.487 60.5716 106.439 60.5716Z" fill="#00337F"/>
<path d="M113.932 61.1972C113.378 61.1962 112.847 60.9811 112.448 60.5968C112.05 60.2126 111.815 59.6889 111.794 59.1356L111.523 51.8887C111.512 51.6077 111.557 51.3274 111.655 51.0638C111.753 50.8001 111.902 50.5584 112.093 50.3522C112.284 50.1461 112.514 49.9797 112.77 49.8625C113.025 49.7453 113.301 49.6795 113.582 49.6691L144.831 48.5008C145.398 48.4796 145.951 48.6847 146.367 49.071C146.783 49.4573 147.029 49.9932 147.05 50.5607L147.321 57.8076C147.332 58.0886 147.287 58.3689 147.189 58.6325C147.091 58.8962 146.942 59.138 146.751 59.3441C146.56 59.5502 146.33 59.7166 146.074 59.8338C145.819 59.951 145.543 60.0168 145.262 60.0272L114.013 61.1955C113.986 61.1967 113.959 61.1972 113.932 61.1972Z" fill="#2F2E41"/>
<path d="M150.551 128H145.69C145.122 127.999 144.578 127.774 144.177 127.372C143.776 126.971 143.55 126.426 143.549 125.859V85.3337C143.55 84.766 143.776 84.2217 144.177 83.8203C144.578 83.4188 145.122 83.193 145.69 83.1924H150.551C151.118 83.193 151.662 83.4188 152.064 83.8203C152.465 84.2217 152.691 84.766 152.691 85.3337V125.859C152.691 126.426 152.465 126.971 152.064 127.372C151.662 127.774 151.118 127.999 150.551 128Z" fill="#2F2E41"/>
<path d="M138.347 128H133.486C132.918 127.999 132.374 127.774 131.973 127.372C131.572 126.971 131.346 126.426 131.345 125.859V85.3337C131.346 84.766 131.572 84.2217 131.973 83.8203C132.374 83.4188 132.918 83.193 133.486 83.1924H138.347C138.914 83.193 139.458 83.4188 139.86 83.8203C140.261 84.2217 140.487 84.766 140.487 85.3337V125.859C140.487 126.426 140.261 126.971 139.86 127.372C139.458 127.774 138.914 127.999 138.347 128Z" fill="#2F2E41"/>
<path d="M143.168 40.9001C152.444 40.9001 159.964 33.378 159.964 24.099C159.964 14.82 152.444 7.29785 143.168 7.29785C133.892 7.29785 126.373 14.82 126.373 24.099C126.373 33.378 133.892 40.9001 143.168 40.9001Z" fill="#00337F"/>
<path d="M134.077 29.8354C133.536 29.6578 133.04 29.3666 132.622 28.9813C132.345 28.7062 132.131 28.3738 131.996 28.0074C131.861 27.6409 131.807 27.2494 131.839 26.8601C131.857 26.5827 131.938 26.3132 132.077 26.0725C132.216 25.8319 132.409 25.6266 132.64 25.4728C133.241 25.0874 134.044 25.0863 134.862 25.4468L134.831 18.8879L135.49 18.8848L135.526 26.5955L135.019 26.2761C134.43 25.9065 133.59 25.6463 132.996 26.0274C132.849 26.1281 132.728 26.2613 132.641 26.4167C132.554 26.572 132.504 26.7453 132.495 26.9231C132.473 27.2131 132.513 27.5045 132.614 27.7774C132.714 28.0503 132.872 28.2984 133.077 28.5047C133.804 29.1997 134.865 29.417 136.075 29.6112L135.971 30.2617C135.328 30.1765 134.694 30.0338 134.077 29.8354Z" fill="#2F2E41"/>
<path d="M128.042 18.5573L127.956 19.2104L131.472 19.6751L131.559 19.0219L128.042 18.5573Z" fill="#2F2E41"/>
<path d="M139.142 20.0227L139.056 20.6758L142.573 21.1404L142.659 20.4873L139.142 20.0227Z" fill="#2F2E41"/>
<path d="M128.871 96.2065H128.871C128.128 96.2057 127.417 95.9104 126.892 95.3854C126.367 94.8605 126.072 94.1487 126.071 93.4063C126.071 93.4063 130.534 69.1848 133.084 54.9883C133.58 52.2277 135.03 49.7293 137.181 47.9298C139.331 46.1304 142.046 45.1444 144.85 45.1443H144.85C148.866 45.1443 152.717 46.7402 155.557 49.5808C158.397 52.4215 159.992 56.2743 159.992 60.2916V65.0751C159.992 73.3316 156.713 81.2501 150.877 87.0883C145.04 92.9266 137.125 96.2065 128.871 96.2065Z" fill="#2F2E41"/>
<path d="M150.061 93.7818C149.889 94.1576 149.611 94.4756 149.263 94.6975C148.914 94.9194 148.509 95.0358 148.095 95.0327L143.235 94.9905C142.954 94.988 142.676 94.9302 142.417 94.8204C142.158 94.7105 141.924 94.5507 141.727 94.3502C141.53 94.1496 141.374 93.9122 141.269 93.6515C141.163 93.3908 141.11 93.1118 141.113 92.8306L141.443 54.7382C141.448 54.1375 141.571 53.5437 141.805 52.9907C142.04 52.4377 142.381 51.9363 142.809 51.5151C143.237 51.0939 143.744 50.7613 144.301 50.5362C144.857 50.311 145.453 50.1978 146.053 50.2031C146.654 50.2083 147.247 50.3318 147.8 50.5665C148.353 50.8013 148.854 51.1426 149.275 51.5712C149.696 51.9997 150.028 52.507 150.253 53.064C150.477 53.621 150.59 54.2168 150.585 54.8175L150.255 92.9099C150.252 93.211 150.186 93.5081 150.061 93.7818Z" fill="#00337F"/>
<path d="M152.208 83.6129C152.036 83.9887 151.759 84.3067 151.41 84.5286C151.062 84.7505 150.656 84.8669 150.243 84.8637L141.941 84.7917C141.373 84.7861 140.831 84.5556 140.433 84.1507C140.036 83.7458 139.815 83.1996 139.819 82.6319L140.09 51.3525C140.092 51.0713 140.15 50.7933 140.26 50.5345C140.37 50.2756 140.53 50.0409 140.73 49.8438C140.931 49.6467 141.168 49.491 141.429 49.3857C141.689 49.2803 141.968 49.2274 142.249 49.2298L150.551 49.3018C150.832 49.3042 151.11 49.362 151.369 49.4719C151.628 49.5817 151.862 49.7415 152.059 49.9421C152.256 50.1426 152.412 50.38 152.517 50.6408C152.623 50.9015 152.676 51.1804 152.673 51.4616L152.402 82.741C152.4 83.0421 152.334 83.3392 152.208 83.6129Z" fill="#2F2E41"/>
<path d="M138.32 14.1987C135.703 14.6431 132.781 15.1512 130.287 13.9371C128.323 12.9815 126.974 11.0729 127.452 8.83029C128.403 4.36726 133.511 2.3941 137.616 2.7923C140.03 3.01775 142.3 4.04162 144.068 5.70203C144.151 5.78149 144.256 5.83495 144.37 5.85597C144.483 5.877 144.601 5.86467 144.707 5.82048C144.814 5.77629 144.905 5.70213 144.971 5.60698C145.036 5.51183 145.073 5.39976 145.076 5.28433C145.058 3.63746 146.29 2.26321 147.749 1.64285C149.577 0.866139 151.7 1.1437 153.578 1.55935C158.716 2.70568 163.383 5.39235 166.955 9.26083C170.527 13.1293 172.835 17.9956 173.571 23.2103C174.094 26.8813 173.813 30.6222 172.749 34.1742C171.753 37.4484 169.912 40.7393 166.883 42.5207C164.153 44.1259 160.184 44.5393 157.664 42.2872C155.647 40.4832 154.737 37.1109 156.393 34.7771C156.88 34.1003 157.542 33.5682 158.308 33.2371C159.073 32.906 159.914 32.7883 160.741 32.8965C161.523 33.0201 162.253 33.3657 162.845 33.8921C163.437 34.4185 163.865 35.1037 164.079 35.8663C164.236 36.5986 164.188 37.36 163.939 38.0665C163.69 38.7729 163.251 39.3968 162.67 39.869C162.236 40.1813 161.742 40.4017 161.22 40.5171C160.698 40.6324 160.157 40.6401 159.632 40.5398C159.107 40.4394 158.607 40.2331 158.164 39.9334C157.721 39.6338 157.343 39.2469 157.054 38.7966C156.653 38.1527 155.631 38.7452 156.035 39.3929C156.498 40.1179 157.133 40.7175 157.883 41.1385C158.633 41.5595 159.476 41.7889 160.336 41.8065C161.193 41.8221 162.039 41.6095 162.787 41.1905C163.536 40.7714 164.159 40.1609 164.593 39.4215C165.059 38.6671 165.319 37.8031 165.345 36.9166C165.371 36.0301 165.163 35.1523 164.743 34.3716C164.283 33.5754 163.627 32.9096 162.839 32.4371C162.05 31.9647 161.154 31.7012 160.235 31.6715C159.282 31.6641 158.341 31.8886 157.494 32.3257C156.647 32.7629 155.919 33.3995 155.373 34.1808C154.489 35.5327 154.163 37.1746 154.463 38.7618C154.729 40.3761 155.51 41.8609 156.69 42.9943C158.055 44.2306 159.812 44.9457 161.653 45.0136C165.657 45.2421 169.232 42.9344 171.441 39.7265C173.733 36.3979 174.758 32.221 174.964 28.2277C175.175 24.1576 174.465 20.0924 172.887 16.3348C171.309 12.5772 168.905 9.22385 165.852 6.52445C162.949 3.98262 159.544 2.07959 155.859 0.938765C152.21 -0.179204 147.116 -0.994116 144.652 2.73489C144.151 3.49001 143.887 4.37794 143.895 5.28436L144.903 4.86666C141.338 1.45915 135.734 0.598117 131.283 2.69268C129.047 3.74471 127.109 5.70096 126.414 8.113C125.693 10.6157 126.736 13.0721 128.874 14.4914C131.784 16.4231 135.393 15.8882 138.634 15.338C139.382 15.211 139.065 14.0723 138.32 14.1988V14.1987Z" fill="#2F2E41"/>
<path d="M101.388 86.818H5.75133C4.22652 86.8163 2.76465 86.2095 1.68645 85.131C0.608238 84.0524 0.00173966 82.5901 0 81.0648V23.862C0.00173966 22.3367 0.608238 20.8744 1.68645 19.7959C2.76465 18.7173 4.22652 18.1106 5.75133 18.1089H101.388C102.913 18.1106 104.374 18.7173 105.453 19.7959C106.531 20.8744 107.137 22.3367 107.139 23.862V81.0648C107.137 82.5901 106.531 84.0524 105.453 85.131C104.374 86.2095 102.913 86.8163 101.388 86.818ZM5.75133 19.0951C4.48792 19.0966 3.27667 19.5993 2.3833 20.4929C1.48993 21.3866 0.987395 22.5982 0.985943 23.862V81.0648C0.987395 82.3286 1.48993 83.5403 2.3833 84.4339C3.27667 85.3276 4.48792 85.8303 5.75133 85.8317H101.388C102.651 85.8303 103.862 85.3276 104.756 84.4339C105.649 83.5403 106.152 82.3286 106.153 81.0648V23.862C106.152 22.5982 105.649 21.3866 104.756 20.4929C103.862 19.5993 102.651 19.0966 101.388 19.0951H5.75133Z" fill="#3F3D56"/>
<path d="M18.5685 31.5877C17.756 31.5877 16.9618 31.3467 16.2862 30.8951C15.6106 30.4436 15.0841 29.8018 14.7732 29.0509C14.4622 28.3 14.3809 27.4737 14.5394 26.6766C14.6979 25.8794 15.0892 25.1472 15.6637 24.5725C16.2382 23.9978 16.9702 23.6064 17.7671 23.4479C18.564 23.2893 19.39 23.3707 20.1406 23.6817C20.8913 23.9927 21.5329 24.5195 21.9843 25.1952C22.4357 25.871 22.6766 26.6655 22.6766 27.4783C22.6754 28.5678 22.2422 29.6123 21.4721 30.3827C20.7019 31.1531 19.6577 31.5865 18.5685 31.5877ZM18.5685 24.3551C17.951 24.3551 17.3474 24.5383 16.834 24.8815C16.3205 25.2247 15.9204 25.7124 15.6841 26.2831C15.4477 26.8538 15.3859 27.4818 15.5064 28.0876C15.6269 28.6934 15.9242 29.2499 16.3608 29.6867C16.7975 30.1235 17.3538 30.4209 17.9594 30.5414C18.5651 30.6619 19.1928 30.6001 19.7633 30.3637C20.3338 30.1273 20.8215 29.727 21.1645 29.2134C21.5076 28.6998 21.6907 28.096 21.6907 27.4783C21.6898 26.6503 21.3605 25.8564 20.7752 25.2709C20.1899 24.6854 19.3963 24.3561 18.5685 24.3551Z" fill="#3F3D56"/>
<path d="M87.9133 31.5877C87.1008 31.5877 86.3065 31.3467 85.6309 30.8951C84.9554 30.4436 84.4288 29.8018 84.1179 29.0509C83.807 28.3 83.7256 27.4737 83.8841 26.6766C84.0426 25.8794 84.4339 25.1472 85.0084 24.5725C85.5829 23.9978 86.3149 23.6064 87.1118 23.4479C87.9087 23.2893 88.7347 23.3707 89.4854 23.6817C90.236 23.9927 90.8776 24.5195 91.329 25.1952C91.7804 25.871 92.0214 26.6655 92.0214 27.4783C92.0201 28.5678 91.5869 29.6123 90.8168 30.3827C90.0466 31.1531 89.0024 31.5865 87.9133 31.5877ZM87.9133 24.3551C87.2958 24.3551 86.6921 24.5383 86.1787 24.8815C85.6653 25.2247 85.2651 25.7124 85.0288 26.2831C84.7925 26.8538 84.7307 27.4818 84.8511 28.0876C84.9716 28.6934 85.2689 29.2499 85.7056 29.6867C86.1422 30.1235 86.6985 30.4209 87.3042 30.5414C87.9098 30.6619 88.5376 30.6001 89.1081 30.3637C89.6786 30.1273 90.1662 29.727 90.5092 29.2134C90.8523 28.6998 91.0354 28.096 91.0354 27.4783C91.0345 26.6503 90.7052 25.8564 90.1199 25.2709C89.5346 24.6854 88.741 24.3561 87.9133 24.3551Z" fill="#3F3D56"/>
<path d="M28.2636 56.5727H10.5166C9.77604 56.5718 9.06601 56.2771 8.54232 55.7533C8.01862 55.2294 7.72402 54.5192 7.72314 53.7783V43.2583C7.72403 42.5174 8.01862 41.8072 8.54232 41.2833C9.06601 40.7594 9.77604 40.4647 10.5166 40.4639H28.2636C29.0042 40.4647 29.7143 40.7594 30.238 41.2833C30.7616 41.8072 31.0562 42.5174 31.0571 43.2583V53.7783C31.0562 54.5192 30.7616 55.2294 30.238 55.7533C29.7143 56.2771 29.0042 56.5718 28.2636 56.5727Z" fill="#E6E6E6"/>
<path d="M62.4428 56.5727H44.6958C43.9552 56.5718 43.2452 56.2771 42.7215 55.7533C42.1978 55.2294 41.9032 54.5192 41.9023 53.7783V43.2583C41.9032 42.5174 42.1978 41.8072 42.7215 41.2833C43.2452 40.7594 43.9552 40.4647 44.6958 40.4639H62.4428C63.1834 40.4647 63.8935 40.7594 64.4172 41.2833C64.9408 41.8072 65.2354 42.5174 65.2363 43.2583V53.7783C65.2354 54.5192 64.9408 55.2294 64.4172 55.7533C63.8935 56.2771 63.1834 56.5718 62.4428 56.5727Z" fill="#E6E6E6"/>
<path d="M78.8755 40.7927C78.222 40.7934 77.5955 41.0534 77.1334 41.5157C76.6713 41.9779 76.4114 42.6047 76.4106 43.2584V53.7784C76.4114 54.4321 76.6713 55.0589 77.1334 55.5211C77.5955 55.9833 78.222 56.2433 78.8755 56.2441H96.6225C97.276 56.2433 97.9025 55.9833 98.3646 55.5211C98.8267 55.0589 99.0866 54.4321 99.0873 53.7784V43.2584C99.0866 42.6047 98.8267 41.9779 98.3646 41.5157C97.9025 41.0534 97.276 40.7934 96.6225 40.7927H78.8755Z" fill="#E6E6E6"/>
<path d="M28.4282 77.613H10.6812C9.94059 77.6121 9.23056 77.3174 8.70687 76.7935C8.18317 76.2697 7.88858 75.5594 7.8877 74.8186V64.2985C7.88858 63.5577 8.18317 62.8474 8.70687 62.3236C9.23056 61.7997 9.94059 61.505 10.6812 61.5042H28.4282C29.1688 61.505 29.8788 61.7997 30.4025 62.3236C30.9262 62.8474 31.2208 63.5577 31.2217 64.2985V74.8186C31.2208 75.5594 30.9262 76.2697 30.4025 76.7935C29.8788 77.3174 29.1688 77.6121 28.4282 77.613Z" fill="#E6E6E6"/>
<path d="M62.6074 77.613H44.8604C44.1198 77.6121 43.4098 77.3174 42.8861 76.7935C42.3624 76.2697 42.0678 75.5594 42.0669 74.8186V64.2985C42.0678 63.5577 42.3624 62.8474 42.8861 62.3236C43.4098 61.7997 44.1198 61.505 44.8604 61.5042H62.6074C63.348 61.505 64.058 61.7997 64.5817 62.3236C65.1054 62.8474 65.4 63.5577 65.4009 64.2985V74.8186C65.4 75.5594 65.1054 76.2697 64.5817 76.7935C64.058 77.3174 63.348 77.6121 62.6074 77.613Z" fill="#E6E6E6"/>
<path d="M96.7866 77.613H79.0396C78.299 77.6121 77.589 77.3174 77.0653 76.7935C76.5416 76.2697 76.247 75.5594 76.2461 74.8186V64.2985C76.247 63.5577 76.5416 62.8474 77.0653 62.3236C77.589 61.7997 78.299 61.505 79.0396 61.5042H96.7866C97.5272 61.505 98.2372 61.7997 98.7609 62.3236C99.2846 62.8474 99.5792 63.5577 99.5801 64.2985V74.8186C99.5792 75.5594 99.2846 76.2697 98.7609 76.7935C98.2372 77.3174 97.5272 77.6121 96.7866 77.613Z" fill="#E6E6E6"/>
<path d="M18.5687 28.629C18.2638 28.6286 17.9714 28.5073 17.7558 28.2916C17.5401 28.0759 17.4188 27.7834 17.4185 27.4783V11.0408C17.4185 10.7356 17.5396 10.4429 17.7554 10.2271C17.9711 10.0114 18.2637 9.89014 18.5687 9.89014C18.8738 9.89014 19.1664 10.0114 19.3821 10.2271C19.5978 10.4429 19.719 10.7356 19.719 11.0408V27.4783C19.7186 27.7834 19.5973 28.0759 19.3817 28.2916C19.166 28.5073 18.8737 28.6286 18.5687 28.629Z" fill="#3F3D56"/>
<path d="M87.9135 28.629C87.6085 28.6286 87.3161 28.5073 87.1005 28.2916C86.8849 28.0759 86.7636 27.7834 86.7632 27.4783V11.0408C86.7632 10.7356 86.8844 10.4429 87.1001 10.2271C87.3158 10.0114 87.6084 9.89014 87.9135 9.89014C88.2185 9.89014 88.5111 10.0114 88.7268 10.2271C88.9425 10.4429 89.0637 10.7356 89.0637 11.0408V27.4783C89.0633 27.7834 88.942 28.0759 88.7264 28.2916C88.5108 28.5073 88.2184 28.6286 87.9135 28.629Z" fill="#3F3D56"/>
<path d="M18.7194 52.7828C18.2356 52.7836 17.7645 52.627 17.3774 52.3366L17.3534 52.3186L12.2986 48.4506C11.8258 48.088 11.5163 47.5524 11.4383 46.9616C11.3603 46.3708 11.5201 45.7731 11.8826 45.3002C12.245 44.8272 12.7805 44.5177 13.3711 44.4396C13.9618 44.3616 14.5592 44.5214 15.032 44.884L18.3061 47.3956L26.043 37.2987C26.2224 37.0646 26.4461 36.8682 26.7014 36.7206C26.9567 36.573 27.2386 36.4772 27.5309 36.4385C27.8233 36.3999 28.1203 36.4193 28.4052 36.4955C28.69 36.5717 28.9571 36.7033 29.1911 36.8828L29.1918 36.8833L29.1438 36.9499L29.1931 36.8833C29.6652 37.2462 29.9741 37.7817 30.0519 38.3722C30.1298 38.9627 29.9703 39.56 29.6084 40.033L20.5081 51.9038C20.2976 52.1773 20.0269 52.3986 19.717 52.5506C19.4072 52.7026 19.0665 52.7811 18.7214 52.7801L18.7194 52.7828Z" fill="#00337F"/>
<path d="M53.8845 73.494C53.4006 73.4948 52.9296 73.3382 52.5424 73.0478L52.5184 73.0298L47.4636 69.1618C46.9908 68.7992 46.6814 68.2636 46.6033 67.6728C46.5253 67.0819 46.6851 66.4843 47.0476 66.0113C47.4101 65.5384 47.9455 65.2288 48.5362 65.1508C49.1268 65.0728 49.7242 65.2326 50.197 65.5952L53.4711 68.1067L61.208 58.0099C61.3874 57.7758 61.6112 57.5794 61.8665 57.4318C62.1218 57.2842 62.4036 57.1883 62.696 57.1497C62.9883 57.1111 63.2854 57.1304 63.5702 57.2067C63.8551 57.2829 64.1221 57.4145 64.3561 57.5939L64.3568 57.5944L64.3088 57.6611L64.3581 57.5944C64.8302 57.9574 65.1391 58.4929 65.217 59.0834C65.2948 59.6739 65.1353 60.2712 64.7735 60.7442L55.6732 72.615C55.4626 72.8885 55.1919 73.1098 54.8821 73.2618C54.5722 73.4138 54.2315 73.4923 53.8864 73.4913L53.8845 73.494Z" fill="#00337F"/>
<path d="M87.0778 52.7828C86.594 52.7836 86.1229 52.627 85.7358 52.3366L85.7118 52.3186L80.657 48.4506C80.1842 48.088 79.8747 47.5524 79.7967 46.9616C79.7187 46.3708 79.8785 45.7731 80.241 45.3002C80.6034 44.8272 81.1389 44.5177 81.7295 44.4396C82.3202 44.3616 82.9176 44.5214 83.3904 44.884L86.6645 47.3956L94.4014 37.2987C94.5808 37.0646 94.8045 36.8682 95.0598 36.7206C95.3151 36.573 95.597 36.4772 95.8893 36.4385C96.1817 36.3999 96.4787 36.4193 96.7636 36.4955C97.0484 36.5717 97.3155 36.7033 97.5495 36.8828L97.5502 36.8833L97.5021 36.9499L97.5515 36.8833C98.0236 37.2462 98.3325 37.7817 98.4103 38.3722C98.4882 38.9627 98.3287 39.56 97.9668 40.033L88.8665 51.9038C88.656 52.1773 88.3853 52.3986 88.0754 52.5506C87.7656 52.7026 87.4249 52.7811 87.0798 52.7801L87.0778 52.7828Z" fill="#00337F"/>
</g>
<defs>
<clipPath id="clip0_276_2050">
<rect width="175" height="128" fill="white"/>
</clipPath>
</defs>
</svg>
