<svg width="160" height="185" viewBox="0 0 170 195" fill="none" xmlns="http://www.w3.org/2000/svg">
<g clip-path="url(#clip0_264_2202)">
<path d="M81.5818 182.934L81.3651 178.042C81.3426 178.03 81.32 178.018 81.2975 178.006C78.9759 176.782 76.3152 178.997 77.0567 181.522C77.7544 183.899 78.2232 186.46 79.5002 188.54C80.2548 189.748 81.2704 190.77 82.4717 191.53C83.673 192.291 85.0293 192.77 86.44 192.932L89.3895 194.746C89.7943 192.48 89.705 190.153 89.128 187.925C88.551 185.697 87.4998 183.621 86.047 181.84C85.2222 180.849 84.2764 179.967 83.2319 179.213C82.5255 181.084 81.5818 182.934 81.5818 182.934Z" fill="#F2F2F2"/>
<path d="M55.1745 133.286C49.496 127.404 41.267 124.031 32.5976 124.031L32.2632 124.032C26.5528 124.034 20.9444 122.513 16.0115 119.625L15.4981 119.324L15.9116 118.896C18.1499 116.571 20.0188 113.913 21.453 111.017C20.4344 111.971 19.2195 112.688 17.8944 113.118C16.5692 113.548 15.1662 113.68 13.7845 113.505C12.3258 113.331 10.9255 112.827 9.68844 112.031C8.45142 111.235 7.40987 110.168 6.64193 108.911C3.61188 103.973 0 96.9678 0 91.6308C0.00471675 87.1197 0.945241 82.6591 2.76163 78.5332C4.57801 74.4074 7.23041 70.7069 10.5498 67.6675C12.6512 65.7646 14.3297 63.4383 15.4759 60.8402C16.622 58.2421 17.21 55.4306 17.2017 52.589L17.2 52.1846C17.1994 48.4434 17.6547 44.7163 18.5555 41.0861L18.647 40.7196L19.0226 40.7327C21.4444 40.8155 23.8675 40.6116 26.2419 40.1253C24.0147 39.851 21.836 39.269 19.7674 38.396L19.3634 38.2318L19.5005 37.8161C28.9522 31.939 50.2873 34.9824 62.6708 6.52872C72.7122 -16.5434 108.141 27.0098 108.141 52.1846C108.141 54.7534 105.61 58.148 107.505 59.8459C127.99 78.1997 113.856 89.9853 109.399 101.845C108.342 104.658 110.635 107.747 110.635 110.791C110.635 111.308 110.622 111.841 110.596 112.376L110.556 113.199L109.873 112.742C108.522 111.853 107.269 110.821 106.137 109.665C107.312 112.38 107.865 115.325 107.757 118.283C107.649 121.241 106.882 124.137 105.512 126.758C103.365 130.828 101.288 133.741 99.3388 135.416C93.0944 140.783 85.0446 143.551 76.8354 143.155C68.6263 142.759 60.8778 139.228 55.1745 133.286Z" fill="#E6E6E6"/>
<path d="M89.4711 194.504C89.6107 194.504 89.7456 194.453 89.851 194.361C89.9563 194.269 90.0252 194.142 90.0449 194.003C90.0695 193.83 92.484 176.341 90.3155 153.098C88.3129 131.633 81.8815 100.716 62.6158 75.3239C62.5697 75.2629 62.512 75.2117 62.4461 75.1731C62.3803 75.1345 62.3075 75.1093 62.2319 75.099C62.1563 75.0887 62.0795 75.0935 62.0057 75.1131C61.932 75.1326 61.8628 75.1666 61.8022 75.213C61.7415 75.2594 61.6905 75.3174 61.6522 75.3836C61.6139 75.4498 61.5889 75.5229 61.5788 75.5989C61.5686 75.6748 61.5735 75.7519 61.593 75.826C61.6126 75.9 61.6465 75.9694 61.6928 76.0303C80.7921 101.203 87.1716 131.894 89.1601 153.207C91.316 176.315 88.9204 193.667 88.896 193.839C88.8843 193.922 88.8905 194.006 88.9141 194.086C88.9376 194.166 88.9781 194.24 89.0326 194.303C89.0871 194.366 89.1545 194.417 89.2302 194.452C89.3058 194.486 89.388 194.504 89.4711 194.504Z" fill="#3F3D56"/>
<path d="M73.7492 111.14C73.8717 111.141 73.9912 111.102 74.0904 111.029C74.1896 110.957 74.2634 110.855 74.3014 110.738C74.3393 110.621 74.3393 110.495 74.3015 110.378C74.2637 110.261 74.1899 110.159 74.0907 110.086C74.0208 110.035 66.9729 104.935 56.4363 101.061C46.696 97.4797 31.8844 94.2331 16.6362 99.1068C16.5635 99.1299 16.496 99.1672 16.4377 99.2165C16.3793 99.2658 16.3312 99.3262 16.2961 99.3942C16.261 99.4622 16.2396 99.5365 16.2332 99.6128C16.2267 99.6892 16.2353 99.766 16.2584 99.839C16.2815 99.912 16.3188 99.9797 16.368 100.038C16.4172 100.097 16.4774 100.145 16.5451 100.18C16.6129 100.215 16.6869 100.237 16.7629 100.243C16.8389 100.249 16.9154 100.241 16.9881 100.217C31.9239 95.4437 46.467 98.6366 56.0373 102.155C66.4235 105.974 73.3399 110.979 73.4085 111.029C73.5075 111.102 73.6267 111.14 73.7492 111.14Z" fill="#3F3D56"/>
<path d="M100.305 44.7177C100.314 44.5949 100.284 44.4725 100.219 44.3679C100.155 44.2633 100.059 44.182 99.9451 44.1356C99.8316 44.0891 99.7064 44.08 99.5874 44.1095C99.4684 44.1389 99.3617 44.2055 99.2827 44.2996C99.227 44.366 93.6543 51.0584 89.0476 61.3334C84.7894 70.832 80.4983 85.4343 84.2406 101.059C84.2766 101.209 84.3705 101.339 84.5018 101.42C84.633 101.5 84.7908 101.525 84.9404 101.489C85.09 101.453 85.2192 101.359 85.2995 101.227C85.3798 101.095 85.4048 100.937 85.3688 100.786C81.7035 85.482 85.9219 71.1447 90.1058 61.8119C94.6467 51.6835 100.115 45.116 100.17 45.0508C100.249 44.9569 100.296 44.8403 100.305 44.7177Z" fill="#3F3D56"/>
<path d="M99.5197 74.7636C100.009 78.7302 102.746 82.0007 106.726 82.0007C108.637 82.0007 110.47 81.2382 111.822 79.881C113.173 78.5238 113.932 76.683 113.932 74.7636C113.932 70.7667 110.689 67.8961 106.726 67.5265C102.521 67.1344 98.8912 69.671 99.5197 74.7636Z" fill="#2F2E41"/>
<path d="M110.064 191.317L112.808 191.316L114.113 180.686L110.063 180.686L110.064 191.317Z" fill="#FFB6B6"/>
<path d="M109.967 194.191L118.406 194.191V194.084C118.406 193.209 118.06 192.37 117.444 191.752C116.828 191.133 115.993 190.785 115.121 190.785H115.121L113.58 189.611L110.704 190.786L109.967 190.786L109.967 194.191Z" fill="#2F2E41"/>
<path d="M99.2542 191.317L101.998 191.316L103.304 180.686L99.2537 180.686L99.2542 191.317Z" fill="#FFB6B6"/>
<path d="M99.1577 194.191L107.597 194.191V194.084C107.596 193.209 107.25 192.37 106.634 191.752C106.018 191.133 105.183 190.785 104.312 190.785H104.312L102.77 189.611L99.8943 190.786L99.1576 190.786L99.1577 194.191Z" fill="#2F2E41"/>
<path d="M119.507 124.738L121.447 131.418L119.162 159.711C119.162 159.711 120.339 161.48 119.507 161.48C118.676 161.48 117.61 161.872 118.281 162.929C118.953 163.985 116.657 167.778 116.657 167.778L113.41 187.923L109.272 187.862C109.272 187.862 107.168 186.685 108.349 185.495C109.529 184.305 110.361 184.305 109.252 183.191C108.144 182.078 108.144 182.413 108.144 181.55C108.144 180.686 107.033 170.133 109.667 166.085L108.873 149.58L107.004 165.769L103.155 187.366L99.1684 187.333C99.1684 187.333 97.3273 185.551 97.3307 184.232C97.3341 182.913 98.4682 182.803 97.624 182.023C96.7798 181.243 96.7798 169.256 99.2742 162.593C99.2742 162.593 100.685 158.871 99.271 157.595C97.8568 156.32 99.2693 154.86 99.2693 154.86C99.2693 154.86 101.509 154.047 99.2673 151.704C97.0253 149.361 99.2552 132.79 99.2552 132.79C99.2552 132.79 96.8043 126.101 99.2865 123.471C101.769 120.841 119.507 124.738 119.507 124.738Z" fill="#2F2E41"/>
<path d="M84.9518 136.248L88.4134 127.846L91.1407 129.368L89.4936 137.914C89.6586 138.456 89.6699 139.033 89.5262 139.58C89.3826 140.128 89.0897 140.624 88.6806 141.014C88.2714 141.403 87.7622 141.67 87.2101 141.785C86.658 141.9 86.085 141.858 85.5554 141.664C85.0258 141.469 84.5608 141.13 84.2124 140.685C83.8641 140.24 83.6463 139.706 83.5836 139.143C83.5209 138.581 83.6157 138.011 83.8574 137.5C84.0991 136.988 84.4781 136.555 84.9518 136.248Z" fill="#FFB6B6"/>
<path d="M143.038 69.814L137.771 77.209L135.458 75.1064L138.991 67.1573C138.952 66.5924 139.071 66.0279 139.335 65.5273C139.598 65.0267 139.995 64.6098 140.482 64.3235C140.968 64.0372 141.525 63.8929 142.088 63.9067C142.652 63.9205 143.2 64.0919 143.672 64.4016C144.144 64.7114 144.521 65.1472 144.76 65.6601C144.999 66.173 145.09 66.7427 145.024 67.305C144.958 67.8673 144.738 68.4 144.387 68.8433C144.036 69.2865 143.569 69.6227 143.038 69.814Z" fill="#FFB6B6"/>
<path d="M120.03 125.423C123.446 130.745 106.274 137.498 99.6847 134.787C98.5309 134.312 94.5621 132.744 97.2749 130.57C99.9878 128.396 96.9604 128.09 96.8888 126.675C96.841 125.729 97.5704 123.653 96.8094 123.742C96.0483 123.831 95.1575 122.522 96.815 121.959C98.4726 121.396 96.8328 120.883 96.8473 120.348C97.0058 114.515 101.462 105.238 101.462 105.238L93.4323 125.851C93.4323 125.851 93.4916 129.418 92.4677 128.328C91.4437 127.238 91.5182 130.765 91.5182 130.765C91.5182 130.765 89.9956 131.832 90.8711 132.426C91.7467 133.02 89.9285 134.846 89.9285 134.846L85.686 134.542C85.686 134.542 85.7525 131.377 86.4768 130.677C87.2012 129.977 86.8454 128.876 86.8454 128.876C86.8454 128.876 88.7314 127.199 87.467 125.838C85.8408 124.087 91.7697 94.515 93.8158 94.8079C94.1051 93.394 94.7781 92.0881 95.7603 91.0343C96.7425 89.9805 97.9957 89.22 99.3813 88.8369L103.964 87.5699L104.777 84.3278H111.229L112.353 86.4581L117.258 88.6811C118.182 87.3719 118.873 85.9923 122.656 85.5451C122.656 85.5451 132.851 76.2297 132.353 75.5023C131.855 74.7749 133.436 73.072 133.436 73.072C133.436 73.072 134.786 72.6284 134.024 72.3915C133.262 72.1547 134.702 71.6071 134.702 71.6071C134.702 71.6071 136.035 71.2553 135.406 70.792C134.777 70.3287 137.505 70.0244 137.505 70.0244L141.043 72.9239L140.328 74.1418C140.328 74.1418 140.764 75.8002 140.195 75.1948C139.626 74.5893 139.519 76.3463 139.519 76.3463C139.519 76.3463 139.228 78.2703 137.505 78.8499C135.781 79.4296 134.474 84.9364 134.474 84.9364C130.41 90.2438 125.613 94.384 119.929 97.1095C122.144 99.6632 120.03 125.423 120.03 125.423Z" fill="#00337F"/>
<path d="M107.523 82.4305C111.052 82.4305 113.913 79.5573 113.913 76.013C113.913 72.4687 111.052 69.5955 107.523 69.5955C103.993 69.5955 101.132 72.4687 101.132 76.013C101.132 79.5573 103.993 82.4305 107.523 82.4305Z" fill="#FFB6B6"/>
<path d="M100.906 76.7121C101.108 78.1066 102.291 80.0522 102.014 80.0522C101.737 80.0522 99.7664 74.3034 101.737 73.9286C103.166 73.6567 103.486 73.8952 104.822 73.3134L104.633 73.4916C105.518 74.1374 106.748 73.7393 107.757 73.319C108.769 72.9015 109.997 72.5034 110.883 73.1464C111.441 73.55 111.676 74.2515 112.023 74.8471C112.369 75.4456 113.009 76.0106 113.669 75.8269C114.198 75.6794 114.503 75.0837 114.5 74.5326C114.498 73.9815 113.783 73.4572 114.024 72.9627C114.737 71.4974 114.096 70.4986 112.541 69.809C111.975 69.7227 111.41 69.6346 110.845 69.5446C111.141 69.1325 111.5 68.7699 111.909 68.4702C111.736 68.0254 111.438 67.6412 111.05 67.3651C110.598 67.0951 110.038 67.1146 109.514 67.1425C108.345 67.2037 107.176 67.2649 106.008 67.3262C105.143 67.3707 104.248 67.4236 103.475 67.8216C102.51 68.3199 101.878 69.2913 101.418 70.2794C100.387 72.5007 100.551 74.2877 100.906 76.7121Z" fill="#2F2E41"/>
<path d="M74.3224 194.914L137.17 195C137.257 195 137.341 194.965 137.403 194.903C137.465 194.841 137.5 194.756 137.5 194.669C137.5 194.581 137.465 194.496 137.403 194.434C137.341 194.372 137.257 194.337 137.17 194.337L74.3224 194.252C74.2349 194.252 74.151 194.287 74.0891 194.349C74.0272 194.411 73.9924 194.495 73.9924 194.583C73.9924 194.671 74.0272 194.755 74.0891 194.817C74.151 194.88 74.2349 194.914 74.3224 194.914Z" fill="#CACACA"/>
<path d="M51.5922 166.024C51.7081 165.225 50.8741 164.441 49.7294 164.274C48.5847 164.106 47.5628 164.619 47.447 165.419C47.3311 166.218 48.1651 167.002 49.3098 167.17C50.4545 167.337 51.4763 166.824 51.5922 166.024Z" fill="#E6E6E6"/>
<path d="M65.2209 164.689C65.3367 163.889 64.5027 163.105 63.358 162.938C62.2133 162.771 61.1915 163.283 61.0756 164.083C60.9598 164.883 61.7938 165.667 62.9385 165.834C64.0831 166.001 65.105 165.489 65.2209 164.689Z" fill="#3F3D56"/>
<path d="M47.8603 154.944C47.9761 154.144 47.1421 153.36 45.9974 153.193C44.8527 153.026 43.8309 153.538 43.715 154.338C43.5992 155.138 44.4332 155.922 45.5779 156.089C46.7225 156.256 47.7444 155.744 47.8603 154.944Z" fill="#FF6584"/>
<path d="M41.9383 150.405C41.9438 149.671 41.536 149.073 41.0275 149.069C40.519 149.065 40.1022 149.657 40.0967 150.391C40.0912 151.125 40.4989 151.724 41.0075 151.727C41.516 151.731 41.9328 151.139 41.9383 150.405Z" fill="#E6E6E6"/>
<path d="M39.9301 141.951C39.9356 141.217 39.5279 140.619 39.0193 140.615C38.5108 140.611 38.094 141.203 38.0885 141.937C38.083 142.671 38.4908 143.27 38.9993 143.274C39.5078 143.277 39.9246 142.685 39.9301 141.951Z" fill="#3F3D56"/>
<path d="M55.5469 156.829C55.5524 156.095 55.1447 155.497 54.6361 155.493C54.1276 155.489 53.7108 156.081 53.7053 156.815C53.6998 157.55 54.1076 158.148 54.6161 158.152C55.1247 158.156 55.5414 157.564 55.5469 156.829Z" fill="#E6E6E6"/>
<path d="M48.961 160.132C48.9665 159.398 48.5587 158.799 48.0502 158.796C47.5416 158.792 47.1249 159.384 47.1194 160.118C47.1139 160.852 47.5216 161.45 48.0302 161.454C48.5387 161.458 48.9555 160.866 48.961 160.132Z" fill="#FF6584"/>
<path d="M58.1288 166.235C58.1344 165.501 57.7266 164.903 57.218 164.899C56.7095 164.895 56.2928 165.487 56.2872 166.221C56.2817 166.956 56.6895 167.554 57.198 167.558C57.7066 167.562 58.1233 166.969 58.1288 166.235Z" fill="#3F3D56"/>
<path d="M156.361 123.159C156.477 122.359 155.642 121.575 154.498 121.408C153.353 121.241 152.331 121.753 152.215 122.553C152.1 123.353 152.934 124.137 154.078 124.304C155.223 124.471 156.245 123.958 156.361 123.159Z" fill="#E6E6E6"/>
<path d="M169.989 121.823C170.105 121.024 169.271 120.24 168.126 120.072C166.982 119.905 165.96 120.418 165.844 121.218C165.728 122.017 166.562 122.801 167.707 122.968C168.852 123.136 169.873 122.623 169.989 121.823Z" fill="#3F3D56"/>
<path d="M152.628 112.078C152.744 111.278 151.91 110.495 150.766 110.327C149.621 110.16 148.599 110.673 148.483 111.472C148.367 112.272 149.201 113.056 150.346 113.223C151.491 113.391 152.513 112.878 152.628 112.078Z" fill="#FF6584"/>
<path d="M146.707 107.539C146.712 106.805 146.304 106.207 145.796 106.203C145.287 106.199 144.871 106.791 144.865 107.525C144.86 108.26 145.267 108.858 145.776 108.862C146.284 108.866 146.701 108.274 146.707 107.539Z" fill="#E6E6E6"/>
<path d="M144.699 99.0856C144.704 98.3514 144.296 97.7531 143.788 97.7493C143.279 97.7454 142.862 98.3374 142.857 99.0716C142.851 99.8057 143.259 100.404 143.768 100.408C144.276 100.412 144.693 99.8197 144.699 99.0856Z" fill="#3F3D56"/>
<path d="M160.315 113.964C160.321 113.23 159.913 112.631 159.405 112.627C158.896 112.624 158.479 113.216 158.474 113.95C158.468 114.684 158.876 115.282 159.385 115.286C159.893 115.29 160.31 114.698 160.315 113.964Z" fill="#E6E6E6"/>
<path d="M153.729 117.266C153.735 116.532 153.327 115.934 152.819 115.93C152.31 115.926 151.893 116.518 151.888 117.252C151.882 117.986 152.29 118.585 152.799 118.589C153.307 118.592 153.724 118 153.729 117.266Z" fill="#FF6584"/>
<path d="M162.897 123.37C162.903 122.636 162.495 122.037 161.986 122.033C161.478 122.03 161.061 122.622 161.056 123.356C161.05 124.09 161.458 124.688 161.966 124.692C162.475 124.696 162.892 124.104 162.897 123.37Z" fill="#3F3D56"/>
<path d="M105.639 43.8296C105.755 43.0299 104.921 42.246 103.777 42.0788C102.632 41.9115 101.61 42.4242 101.494 43.2239C101.378 44.0236 102.212 44.8075 103.357 44.9747C104.502 45.142 105.524 44.6293 105.639 43.8296Z" fill="white"/>
<path d="M119.268 42.4939C119.384 41.6942 118.55 40.9103 117.405 40.7431C116.261 40.5758 115.239 41.0885 115.123 41.8882C115.007 42.6879 115.841 43.4718 116.986 43.639C118.13 43.8063 119.152 43.2936 119.268 42.4939Z" fill="#3F3D56"/>
<path d="M101.908 32.749C102.023 31.9493 101.189 31.1655 100.045 30.9982C98.9 30.8309 97.8781 31.3436 97.7623 32.1433C97.6464 32.943 98.4804 33.7269 99.6251 33.8942C100.77 34.0614 101.792 33.5487 101.908 32.749Z" fill="#FF6584"/>
<path d="M95.9855 28.2103C95.991 27.4762 95.5833 26.8779 95.0747 26.874C94.5662 26.8702 94.1494 27.4622 94.1439 28.1963C94.1384 28.9305 94.5462 29.5288 95.0547 29.5326C95.5633 29.5365 95.98 28.9445 95.9855 28.2103Z" fill="#E6E6E6"/>
<path d="M93.9772 19.7562C93.9827 19.0221 93.575 18.4238 93.0664 18.4199C92.5579 18.4161 92.1411 19.0081 92.1356 19.7422C92.1301 20.4764 92.5379 21.0747 93.0464 21.0785C93.555 21.0824 93.9717 20.4904 93.9772 19.7562Z" fill="#3F3D56"/>
<path d="M109.594 34.6346C109.6 33.9005 109.192 33.3022 108.683 33.2983C108.175 33.2945 107.758 33.8865 107.753 34.6206C107.747 35.3548 108.155 35.9531 108.663 35.9569C109.172 35.9608 109.589 35.3688 109.594 34.6346Z" fill="#E6E6E6"/>
<path d="M103.008 37.9369C103.014 37.2027 102.606 36.6045 102.097 36.6006C101.589 36.5967 101.172 37.1887 101.167 37.9229C101.161 38.657 101.569 39.2553 102.077 39.2592C102.586 39.2631 103.003 38.671 103.008 37.9369Z" fill="#FF6584"/>
<path d="M112.176 44.0404C112.182 43.3062 111.774 42.708 111.265 42.7041C110.757 42.7003 110.34 43.2923 110.334 44.0264C110.329 44.7606 110.737 45.3588 111.245 45.3627C111.754 45.3666 112.171 44.7745 112.176 44.0404Z" fill="#3F3D56"/>
</g>
<defs>
<clipPath id="clip0_264_2202">
<rect width="170" height="195" fill="white"/>
</clipPath>
</defs>
</svg>
