<svg width="24" height="24" viewBox="0 0 24 24" fill="none" xmlns="http://www.w3.org/2000/svg">
<rect width="24" height="24" rx="4" fill="#F3F9FF"/>
<path d="M15.3587 15.366H9.70858C9.36862 15.366 9.09303 15.6416 9.09303 15.9816C9.09303 16.3215 9.36862 16.5971 9.70858 16.5971H15.3587C15.6987 16.5971 15.9743 16.3215 15.9743 15.9816C15.9743 15.6416 15.6987 15.366 15.3587 15.366Z" fill="#00337F"/>
<path d="M15.0004 16.9309H10.0699C9.77227 16.9309 9.53096 17.1715 9.53096 17.4684C9.53096 17.7652 9.77227 18.0058 10.0699 18.0058H15.0004C15.2981 18.0058 15.5394 17.7652 15.5394 17.4684C15.5394 17.1715 15.2981 16.9309 15.0004 16.9309Z" fill="#00337F"/>
<path d="M14.6697 18.3243H10.4007C10.1216 18.3243 9.89539 18.5505 9.89539 18.8296V18.9C9.89539 19.1791 10.1216 19.4053 10.4007 19.4053H14.6697C14.9488 19.4053 15.175 19.1791 15.175 18.9V18.8296C15.175 18.5505 14.9488 18.3243 14.6697 18.3243Z" fill="#00337F"/>
<path d="M13.5488 19.7943H11.5185C11.2343 19.7943 11.004 20.0239 11.004 20.3072C11.004 20.5905 11.2343 20.8202 11.5185 20.8202H13.5488C13.833 20.8202 14.0633 20.5905 14.0633 20.3072C14.0633 20.0239 13.833 19.7943 13.5488 19.7943Z" fill="#FFCF01"/>
<path d="M6 3C6 3 11.1081 7.21388 12.5352 15.219V15.366H10.9519C10.9519 15.366 11.1081 8.46334 6 3Z" fill="#00337F"/>
<path d="M18.66 3C18.66 3 13.5519 7.21388 12.1248 15.219V15.366H13.7081C13.7081 15.366 13.5519 8.46334 18.66 3Z" fill="#FFCF01"/>
<path d="M11.448 5.97667H13.3498C13.3498 5.97667 12.477 8.98702 12.4831 9.78325C12.4831 9.78325 11.84 6.74533 11.448 5.97667Z" fill="#009453"/>
</svg>
